<svg xmlns="http://www.w3.org/2000/svg" viewBox="0 0 310.71 551.85"><defs><style>.cls-1{fill:#175477;}.cls-2{fill:#13a2a2;}.cls-3{fill:#fff;}</style></defs><title>Middel 1</title><g id="Laag_2" data-name="Laag 2"><g id="Laag_1-2" data-name="Laag 1"><path class="cls-1" d="M289.72,263.27c58,113.58-10.55,258.48-127.31,263.78q-3.51.16-7,.16t-7.06-.16C31.55,521.75-37,376.85,21,263.27l47.46-93L155.36,0q43.44,85.16,86.9,170.31Z"/><path class="cls-2" d="M269.28,284c49.16,104.67-8.95,238.2-107.94,243.09q-3,.13-6,.14c-2,0-4-.05-6-.14C50.38,522.18-7.73,388.65,41.43,284l40.25-85.67L155.36,41.36l73.68,157Q249.15,241.15,269.28,284Z"/><rect class="cls-3" x="141.34" y="233.43" width="0.97" height="29.34"/><rect class="cls-3" x="150.96" y="284.62" width="13.12" height="124.66"/><rect class="cls-3" x="131.61" y="306.53" width="35.92" height="102.74"/><rect class="cls-3" x="141.34" y="303.05" width="13.12" height="124.66"/><rect class="cls-3" x="131.61" y="257.54" width="16.29" height="124.66"/><rect class="cls-3" x="128.22" y="319.87" width="15.98" height="124.66"/><rect class="cls-3" x="109.99" y="303.05" width="18.76" height="119.43"/><rect class="cls-3" x="157.52" y="309.49" width="13.12" height="99.78"/><rect class="cls-3" x="110.67" y="279.79" width="8.7" height="29.7"/><rect class="cls-3" x="160.77" y="275.39" width="0.97" height="29.34"/><rect class="cls-3" x="121.45" y="299.22" width="0.97" height="29.34"/><rect class="cls-3" x="124.84" y="299.22" width="0.97" height="29.34"/><rect class="cls-3" x="112.12" y="267.95" width="0.97" height="29.34"/><rect class="cls-3" x="102.74" y="294.64" width="9.38" height="119.43"/><rect class="cls-3" x="170.26" y="299.67" width="11.75" height="119.43"/><rect class="cls-3" x="174.82" y="319.87" width="14.48" height="119.43"/><rect class="cls-3" x="187.65" y="291.99" width="16.82" height="119.43"/><rect class="cls-3" x="183.56" y="262.77" width="9.38" height="119.43"/><rect class="cls-3" x="195.08" y="318.2" width="18.76" height="119.43"/><rect class="cls-3" x="93.36" y="309.49" width="18.76" height="119.43"/><rect class="cls-3" x="206.6" y="305.67" width="18.76" height="119.43"/><rect class="cls-3" x="85.88" y="299.67" width="13.61" height="129.25"/><rect class="cls-3" x="165.44" y="300.83" width="0.97" height="29.34"/><rect class="cls-3" x="177.98" y="288.39" width="0.97" height="29.34"/><rect class="cls-3" x="175.84" y="297.29" width="0.97" height="29.34"/><rect class="cls-3" x="190.08" y="247.38" width="0.97" height="29.34"/><rect class="cls-3" x="209.71" y="286.16" width="0.97" height="29.34"/><rect class="cls-3" x="95.75" y="297.29" width="0.97" height="29.34"/><rect class="cls-3" x="178.75" y="329.1" width="0.97" height="29.34"/><rect class="cls-2" x="215.5" y="302.85" width="14.68" height="21.61"/><rect class="cls-2" x="75.31" y="298.69" width="18.05" height="34.63"/><rect class="cls-3" x="212.18" y="319.87" width="5.41" height="11.05"/><rect class="cls-3" x="90.45" y="329.52" width="8.51" height="12.49"/><rect class="cls-3" x="220.84" y="313.89" width="0.97" height="29.34"/><rect class="cls-2" x="99.49" y="309.06" width="3.25" height="10.06"/><rect class="cls-3" x="85.88" y="351.03" width="139.48" height="62.33"/><rect class="cls-3" x="220.79" y="349.56" width="11.67" height="58.57"/><rect class="cls-3" x="78.5" y="361.39" width="11.67" height="58.57"/><rect class="cls-2" x="71.92" y="396.55" width="167.67" height="62.33"/><rect class="cls-3" x="82.79" y="351.98" width="0.97" height="29.34"/><rect class="cls-3" x="226.62" y="343.23" width="0.97" height="29.34"/><rect class="cls-2" x="76.14" y="360.93" width="4.72" height="9.11"/><rect class="cls-2" x="230.1" y="348.79" width="4.72" height="24.9"/><path class="cls-3" d="M156.9,363.85c-61,163.75,78.18,236,110.09,154C156.68,518.12,150.42,426.16,156.9,363.85Z"/><ellipse class="cls-3" cx="155.49" cy="396.55" rx="77" ry="15.93"/></g></g></svg>